<svg width="600" height="129" viewBox="0 0 600 129" fill="none" xmlns="http://www.w3.org/2000/svg">
<g clip-path="url(#clip0_10233_14484)">
<path d="M165.916 92.5942H173.5L170.716 105.76H184.59L187.375 92.5942H194.959L187.71 126.9H180.126L183.245 112.102H169.371L166.252 126.9H158.667L165.916 92.5942Z" fill="black"/>
<path d="M202.401 92.5942H228.565L227.269 98.9366H208.642L207.106 106.288H224.341L223.092 112.149H205.858L204.081 120.558H222.996L221.651 126.9H195.199L202.401 92.5942Z" fill="black"/>
<path d="M244.933 92.5942H252.662L258.376 126.9H250.886L249.782 119.261H236.965L232.643 126.9H224.675L244.933 92.5942ZM239.941 113.639H249.109L247.429 99.9942H247.333L239.941 113.639Z" fill="black"/>
<path d="M269.224 92.5942H276.808L270.951 120.558H287.514L286.169 126.9H262.021L269.224 92.5942Z" fill="black"/>
<path d="M299.662 98.9366H288.909L290.254 92.5942H318.867L317.522 98.9366H307.248L301.391 126.9H293.807L299.662 98.9366Z" fill="black"/>
<path d="M323.663 92.5942H331.247L328.463 105.76H342.337L345.121 92.5942H352.705L345.456 126.9H337.872L340.992 112.102H327.118L323.996 126.9H316.412L323.663 92.5942Z" fill="black"/>
<path d="M379.832 104.51C379.832 100.282 377.287 98.1209 373.687 98.1209C365.957 98.1209 362.454 105.953 362.454 112.535C362.454 117.242 364.757 121.375 370.23 121.375C374.406 121.375 377.624 118.155 378.294 114.552H385.831C382.759 124.113 377.575 127.717 370.134 127.717C360.532 127.717 354.917 122.192 354.917 112.535C354.917 101.435 362.069 91.7785 373.639 91.7785C381.561 91.7785 387.561 96.1507 387.369 104.51H379.832Z" fill="black"/>
<path d="M406.235 92.5942H413.964L419.678 126.9H412.188L411.084 119.261H398.267L393.946 126.9H385.977L406.235 92.5942ZM401.241 113.639H410.412L408.731 99.9942H408.635L401.241 113.639Z" fill="black"/>
<path d="M430.527 92.5942H446.897C453.09 92.498 457.122 94.949 457.122 101.58C457.122 106.24 453.857 110.132 449.249 110.805V110.901C452.083 111.766 452.802 114.265 452.802 116.955C452.802 118.492 452.563 120.799 452.563 122.913C452.563 124.449 452.659 125.892 453.043 126.9H445.698C445.506 126.084 445.363 125.364 445.363 124.595C445.363 122.289 445.747 119.934 445.747 117.628C445.747 114.314 443.779 113.495 440.802 113.495H433.697L430.864 126.9H423.327L430.527 92.5942ZM434.846 108.113H441.807C445.791 108.066 449.583 106.527 449.583 102.683C449.583 98.9838 446.991 98.4541 444.015 98.4541H436.862L434.846 108.113Z" fill="black"/>
<path d="M466.145 92.5942H492.309L491.013 98.9366H472.386L470.851 106.288H488.086L486.837 112.149H469.602L467.826 120.558H486.741L485.396 126.9H458.945L466.145 92.5942Z" fill="black"/>
<path d="M160.876 1.89779H210.547V14.9707H176.409V31.3109H205.995V43.3925H176.409V72.6063H160.874V1.89779H160.876Z" fill="#E43D30"/>
<path d="M230.535 13.4847H216.485V1.89779H230.535V13.4847ZM216.485 21.4074H230.535V72.6063H216.485V21.4074Z" fill="#E43D30"/>
<path d="M239.637 21.4074H252.996V30.914H253.193C255.766 24.4772 262.692 20.0211 269.52 20.0211C270.508 20.0211 271.696 20.2187 272.587 20.5159V33.5887C271.301 33.2915 269.223 33.094 267.541 33.094C257.251 33.094 253.688 40.522 253.688 49.5338V72.6063H239.637V21.4074Z" fill="#E43D30"/>
<path d="M287.034 55.9688C287.133 62.1084 292.277 64.5839 297.82 64.5839C301.877 64.5839 307.021 63 307.021 58.0474C307.021 53.7889 301.184 52.3029 291.091 50.1247C282.978 48.3416 274.865 45.471 274.865 36.4592C274.865 23.3863 286.145 20.0193 297.128 20.0193C308.309 20.0193 318.6 23.7832 319.688 36.3595H306.33C305.933 30.9122 301.778 29.428 296.732 29.428C293.565 29.428 288.915 30.0224 288.915 34.1813C288.915 39.2318 296.831 39.9258 304.845 41.8069C313.058 43.6879 321.072 46.6598 321.072 56.1664C321.072 69.6343 309.395 73.9925 297.72 73.9925C285.846 73.9925 274.269 69.5364 273.677 55.9688H287.034Z" fill="#E43D30"/>
<path d="M345.115 21.4074H355.405V30.8161H345.115V56.1682C345.115 60.9215 346.303 62.1102 351.052 62.1102C352.537 62.1102 353.922 62.0106 355.405 61.7134V72.7059C353.031 73.1027 349.962 73.2006 347.192 73.2006C338.584 73.2006 331.063 71.22 331.063 61.0193V30.8143H322.553V21.4057H331.063V6.05666H345.113V21.4074H345.115Z" fill="#E43D30"/>
<path d="M408.736 25.666C407.746 18.6348 401.017 13.2872 393.3 13.2872C379.35 13.2872 374.104 25.1713 374.104 37.5501C374.104 49.3346 379.348 61.2187 393.3 61.2187C402.799 61.2187 408.142 54.6822 409.33 45.3732H424.371C422.788 63.0001 410.617 74.2898 393.3 74.2898C371.434 74.2898 358.571 57.9496 358.571 37.5484C358.569 16.5545 371.434 0.214287 393.3 0.214287C408.836 0.214287 421.896 9.32578 423.777 25.666H408.736Z" fill="#00A5B5"/>
<path d="M429.911 1.89779H443.961V72.6063H429.911V1.89779Z" fill="#00A5B5"/>
<path d="M450.493 37.1533C451.284 23.9825 463.058 20.0211 474.538 20.0211C484.73 20.0211 496.999 22.299 496.999 34.5782V61.2169C496.999 65.8706 497.493 70.526 498.78 72.6063H484.532C484.038 71.0224 483.642 69.3389 483.542 67.6554C479.09 72.3091 472.559 73.9926 466.325 73.9926C456.629 73.9926 448.91 69.1397 448.91 58.6436C448.91 47.0567 457.617 44.2841 466.325 43.0953C474.933 41.8087 482.948 42.1058 482.948 36.3613C482.948 30.3196 478.793 29.4298 473.844 29.4298C468.501 29.4298 465.037 31.608 464.543 37.155H450.493V37.1533ZM482.948 47.5514C480.574 49.6317 475.626 49.7296 471.273 50.5216C466.92 51.4131 462.962 52.8991 462.962 58.0475C462.962 63.2955 467.02 64.5839 471.57 64.5839C482.553 64.5839 482.95 55.8692 482.95 52.7994V47.5514H482.948Z" fill="#00A5B5"/>
<path d="M514.807 55.9688C514.907 62.1084 520.051 64.5839 525.593 64.5839C529.651 64.5839 534.795 63 534.795 58.0474C534.795 53.7889 528.957 52.3029 518.865 50.1247C510.751 48.3416 502.638 45.471 502.638 36.4592C502.638 23.3863 513.918 20.0193 524.901 20.0193C536.082 20.0193 546.373 23.7832 547.462 36.3595H534.103C533.706 30.9122 529.551 29.428 524.505 29.428C521.338 29.428 516.688 30.0224 516.688 34.1813C516.688 39.2318 524.604 39.9258 532.618 41.8069C540.831 43.6879 548.845 46.6598 548.845 56.1664C548.845 69.6343 537.168 73.9925 525.493 73.9925C513.619 73.9925 502.042 69.5364 501.448 55.9688H514.807Z" fill="#00A5B5"/>
<path d="M565.963 55.9688C566.062 62.1084 571.206 64.5839 576.748 64.5839C580.806 64.5839 585.95 63 585.95 58.0474C585.95 53.7889 580.113 52.3029 570.02 50.1247C561.907 48.3416 553.793 45.471 553.793 36.4592C553.793 23.3863 565.073 20.0193 576.057 20.0193C587.237 20.0193 597.529 23.7832 598.617 36.3595H585.258C584.862 30.9122 580.706 29.428 575.66 29.428C572.493 29.428 567.844 30.0224 567.844 34.1813C567.844 39.2318 575.76 39.9258 583.774 41.8069C591.987 43.6879 600.001 46.6598 600.001 56.1664C600.001 69.6343 588.324 73.9925 576.649 73.9925C564.775 73.9925 553.198 69.5364 552.604 55.9688H565.963Z" fill="#00A5B5"/>
<path d="M64.0966 91.8013C79.0848 91.8013 91.2351 79.6407 91.2351 64.6398C91.2351 49.639 79.0848 37.4784 64.0966 37.4784C49.1083 37.4784 36.958 49.639 36.958 64.6398C36.958 79.6407 49.1083 91.8013 64.0966 91.8013Z" fill="#E43D30"/>
<path d="M47.8263 33.9541C52.5995 33.9541 56.469 30.0814 56.469 25.3041C56.469 20.5269 52.5995 16.6541 47.8263 16.6541C43.0531 16.6541 39.1836 20.5269 39.1836 25.3041C39.1836 30.0814 43.0531 33.9541 47.8263 33.9541Z" fill="#00A5B5"/>
<path d="M80.3741 33.9541C85.1474 33.9541 89.0168 30.0814 89.0168 25.3041C89.0168 20.5269 85.1474 16.6541 80.3741 16.6541C75.6009 16.6541 71.7314 20.5269 71.7314 25.3041C71.7314 30.0814 75.6009 33.9541 80.3741 33.9541Z" fill="#00A5B5"/>
<path d="M88.6868 9.97758C91.3098 9.97758 93.4361 7.84946 93.4361 5.22429C93.4361 2.59911 91.3098 0.470993 88.6868 0.470993C86.0638 0.470993 83.9375 2.59911 83.9375 5.22429C83.9375 7.84946 86.0638 9.97758 88.6868 9.97758Z" fill="#00A5B5"/>
<path d="M39.5213 9.97758C42.1442 9.97758 44.2706 7.84946 44.2706 5.22429C44.2706 2.59911 42.1442 0.470993 39.5213 0.470993C36.8983 0.470993 34.772 2.59911 34.772 5.22429C34.772 7.84946 36.8983 9.97758 39.5213 9.97758Z" fill="#00A5B5"/>
<path d="M47.8263 112.601C52.5995 112.601 56.469 108.728 56.469 103.951C56.469 99.1739 52.5995 95.3011 47.8263 95.3011C43.0531 95.3011 39.1836 99.1739 39.1836 103.951C39.1836 108.728 43.0531 112.601 47.8263 112.601Z" fill="#00A5B5"/>
<path d="M80.3741 112.601C85.1474 112.601 89.0168 108.728 89.0168 103.951C89.0168 99.1739 85.1474 95.3011 80.3741 95.3011C75.6009 95.3011 71.7314 99.1739 71.7314 103.951C71.7314 108.728 75.6009 112.601 80.3741 112.601Z" fill="#00A5B5"/>
<path d="M88.6868 128.786C91.3098 128.786 93.4361 126.658 93.4361 124.032C93.4361 121.407 91.3098 119.279 88.6868 119.279C86.0638 119.279 83.9375 121.407 83.9375 124.032C83.9375 126.658 86.0638 128.786 88.6868 128.786Z" fill="#00A5B5"/>
<path d="M39.5213 128.786C42.1442 128.786 44.2706 126.658 44.2706 124.032C44.2706 121.407 42.1442 119.279 39.5213 119.279C36.8983 119.279 34.772 121.407 34.772 124.032C34.772 126.658 36.8983 128.786 39.5213 128.786Z" fill="#00A5B5"/>
<path d="M87.5911 30.0713C90.223 26.0857 89.1284 20.7192 85.1461 18.0851C81.1638 15.4509 75.8018 16.5465 73.1699 20.5321C70.5379 24.5178 71.6326 29.8842 75.6149 32.5184C79.5972 35.1526 84.9591 34.057 87.5911 30.0713Z" fill="#00A5B5"/>
<path d="M55.0432 108.722C57.6752 104.736 56.5805 99.3697 52.5982 96.7355C48.6159 94.1014 43.254 95.197 40.622 99.1826C37.9901 103.168 39.0847 108.535 43.0671 111.169C47.0494 113.803 52.4113 112.707 55.0432 108.722Z" fill="#00A5B5"/>
<path d="M108.734 55.1419C112.488 52.192 113.143 46.7543 110.195 42.9965C107.248 39.2387 101.815 38.5838 98.0601 41.5338C94.3054 44.4837 93.6511 49.9214 96.5986 53.6792C99.5461 57.437 104.979 58.0919 108.734 55.1419Z" fill="#00A5B5"/>
<path d="M108.734 87.7182C112.488 84.7683 113.143 79.3306 110.195 75.5728C107.248 71.815 101.815 71.1601 98.0601 74.1101C94.3054 77.06 93.6511 82.4977 96.5986 86.2555C99.546 90.0133 104.979 90.6682 108.734 87.7182Z" fill="#00A5B5"/>
<path d="M126.393 92.9712C128.456 91.3502 128.816 88.3621 127.196 86.2971C125.577 84.2322 122.591 83.8723 120.528 85.4933C118.465 87.1144 118.105 90.1025 119.725 92.1674C121.344 94.2324 124.33 94.5923 126.393 92.9712Z" fill="#00A5B5"/>
<path d="M126.393 43.7658C128.456 42.1447 128.816 39.1567 127.196 37.0917C125.577 35.0267 122.591 34.6669 120.528 36.2879C118.465 37.909 118.105 40.897 119.725 42.962C121.344 45.027 124.33 45.3868 126.393 43.7658Z" fill="#00A5B5"/>
<path d="M30.1518 55.1426C33.9064 52.1926 34.5607 46.7549 31.6132 42.9971C28.6658 39.2394 23.2327 38.5845 19.478 41.5344C15.7234 44.4844 15.0691 49.9221 18.0166 53.6799C20.964 57.4377 26.3971 58.0925 30.1518 55.1426Z" fill="#00A5B5"/>
<path d="M30.1518 87.7188C33.9064 84.7689 34.5607 79.3312 31.6132 75.5734C28.6658 71.8156 23.2327 71.1607 19.478 74.1107C15.7234 77.0606 15.0691 82.4983 18.0165 86.2561C20.964 90.0139 26.3971 90.6688 30.1518 87.7188Z" fill="#00A5B5"/>
<path d="M7.68368 92.9725C9.7469 91.3515 10.1065 88.3634 8.48679 86.2984C6.86711 84.2335 3.88153 83.8736 1.81831 85.4947C-0.24491 87.1157 -0.604472 90.1038 1.01521 92.1687C2.63488 94.2337 5.62046 94.5936 7.68368 92.9725Z" fill="#00A5B5"/>
<path d="M7.68368 43.7671C9.7469 42.1461 10.1065 39.158 8.48679 37.093C6.86711 35.0281 3.88153 34.6682 1.81831 36.2893C-0.24491 37.9103 -0.604472 40.8984 1.01521 42.9634C2.63488 45.0283 5.62046 45.3882 7.68368 43.7671Z" fill="#00A5B5"/>
</g>
<defs>
<clipPath id="clip0_10233_14484">
<rect width="600" height="128.571" fill="white" transform="translate(0 0.214287)"/>
</clipPath>
</defs>
</svg>
